<?xml version="1.0" encoding="UTF-8" standalone="no"?>
<!-- Created with Inkscape (http://www.inkscape.org/) -->

<svg
   xmlns:dc="http://purl.org/dc/elements/1.1/"
   xmlns:cc="http://creativecommons.org/ns#"
   xmlns:rdf="http://www.w3.org/1999/02/22-rdf-syntax-ns#"
   xmlns:svg="http://www.w3.org/2000/svg"
   xmlns="http://www.w3.org/2000/svg"
   xmlns:sodipodi="http://sodipodi.sourceforge.net/DTD/sodipodi-0.dtd"
   xmlns:inkscape="http://www.inkscape.org/namespaces/inkscape"
   width="745.23016"
   height="133.28363"
   id="svg2"
   version="1.1"
   inkscape:version="0.48.5 r10040"
   sodipodi:docname="arcnote.svg"
   inkscape:export-filename="/home/cyriaque/arcnote.png"
   inkscape:export-xdpi="60.097404"
   inkscape:export-ydpi="60.097404">
  <defs
     id="defs4" />
  <sodipodi:namedview
     id="base"
     pagecolor="#ffffff"
     bordercolor="#666666"
     borderopacity="1.0"
     inkscape:pageopacity="0.0"
     inkscape:pageshadow="2"
     inkscape:zoom="0.7"
     inkscape:cx="442.5912"
     inkscape:cy="138.65442"
     inkscape:document-units="px"
     inkscape:current-layer="g3022"
     showgrid="false"
     showguides="true"
     inkscape:guide-bbox="true"
     fit-margin-top="0"
     fit-margin-left="0"
     fit-margin-right="0"
     fit-margin-bottom="0"
     inkscape:window-width="1449"
     inkscape:window-height="683"
     inkscape:window-x="206"
     inkscape:window-y="249"
     inkscape:window-maximized="0" />
  <metadata
     id="metadata7">
    <rdf:RDF>
      <cc:Work
         rdf:about="">
        <dc:format>image/svg+xml</dc:format>
        <dc:type
           rdf:resource="http://purl.org/dc/dcmitype/StillImage" />
        <dc:title></dc:title>
      </cc:Work>
    </rdf:RDF>
  </metadata>
  <g
     inkscape:label="Calque 1"
     inkscape:groupmode="layer"
     id="layer1"
     transform="translate(-105.90178,-393.52947)">
    <g
       id="g3890"
       transform="matrix(0.86078355,0,0,0.86078355,88.524717,59.81445)"
       inkscape:export-filename="/home/cyriaque/path3931.png"
       inkscape:export-xdpi="60.097404"
       inkscape:export-ydpi="60.097404">
      <path
         sodipodi:nodetypes="ccccc"
         inkscape:connector-curvature="0"
         id="path3040"
         d="m 65.433287,539.62759 c 35.586953,-11.53855 82.741683,-9.72896 114.559273,-8.44144 l -6.24632,-44.00432 -103.540638,26.76905 z"
         style="fill:#9eabb0;stroke:none" />
      <path
         id="path3028"
         d="m 215.15625,387.6875 c 0,0 -22.07094,14.13821 -64.65625,26.25 -41.64601,11.84464 -76.42939,2.02515 -79.25,1.1875 2.301372,0.93172 10.929623,7.36002 6.53125,51.34375 -5.050763,50.50762 -57.59375,55.5625 -57.59375,55.5625 0,0 11.927856,40.12298 66.6875,8.09375 53.53808,-31.31472 65.65625,-21.21875 65.65625,-21.21875 0,0 43.12305,66.05657 55.5625,-29.3125 6.06092,-46.46701 7.0625,-91.90625 7.0625,-91.90625 z m -144.4375,27.28125 c 0,0 0.395076,0.0937 0.5,0.125 -0.321592,-0.12627 -0.5,-0.125 -0.5,-0.125 z m 114.59375,4.84375 c 7.85625,0 13.02753,5.65376 11.5625,12.625 -1.46503,6.97124 -9.01875,12.59375 -16.875,12.59375 -7.85625,0 -13.02753,-5.62251 -11.5625,-12.59375 1.46503,-6.97124 9.01875,-12.625 16.875,-12.625 z M 156.5,441.21875 a 2.0002,2.0002 0 0 1 0.65625,3.9375 c -20.95759,6.54718 -42.05251,11.69868 -63.34375,10.1875 a 2.0049378,2.0049378 0 1 1 0.28125,-4 c 20.46172,1.4523 41.07963,-3.5035 61.875,-10 a 2.0002,2.0002 0 0 1 0.53125,-0.125 z m 34.28125,9.09375 a 2.0002,2.0002 0 0 1 0.15625,0 2.0002,2.0002 0 0 1 0.5,3.96875 c -27.31144,7.16748 -74.67964,18.85559 -102.65625,17.1875 a 2.0029885,2.0029885 0 1 1 0.21875,-4 c 26.57163,1.58431 74.16947,-9.91457 101.40625,-17.0625 a 2.0002,2.0002 0 0 1 0.375,-0.0937 z m -9,17.15625 a 2.0002,2.0002 0 0 1 0.1875,0 2.0002,2.0002 0 0 1 0.375,3.96875 c -27.31144,7.16748 -74.67963,18.88684 -102.65625,17.21875 a 2.0029885,2.0029885 0 1 1 0.21875,-4 c 26.57163,1.58431 74.16947,-9.94587 101.40625,-17.09375 a 2.0002,2.0002 0 0 1 0.34375,-0.0625 2.0002,2.0002 0 0 1 0.125,-0.0312 z"
         style="fill:#bdcdd4;stroke:none"
         inkscape:connector-curvature="0" />
    </g>
    <g
       id="g3842"
       transform="matrix(0.60909183,0,0,0.60909183,131.68059,363.9103)"
       style="fill:#ff6600" />
    <g
       id="g3022"
       transform="matrix(0.60909183,0,0,0.60909183,169.05623,204.79109)"
       style="fill:#9eabb0">
      <path
         style="fill:#9eabb0"
         d="m 263.12399,501.05483 c -26.34973,-5.28892 -44.32559,-30.20085 -40.63306,-56.31153 2.63431,-18.6277 15.00328,-34.03594 32.63306,-40.65154 8.15999,-3.06205 21.83344,-3.79828 30.14434,-1.62307 7.76593,2.03257 7.35294,2.09654 7.37097,-1.14185 0.0289,-5.18194 0.49867,-5.32903 16.06133,-5.02851 l 14.42336,0.27851 0.26509,29.2416 c 0.29188,32.19616 -0.45815,38.98994 -5.43549,49.23477 -3.47626,7.15518 -14.19498,17.87548 -21.34704,21.35021 -9.86181,4.79121 -23.40955,6.67326 -33.48256,4.65141 z m 19.04087,-28.34486 c 15.40107,-7.17168 18.58488,-26.55355 6.29676,-38.33245 -14.67791,-14.06966 -39.17756,-3.31409 -39.17756,17.19932 0,17.03247 17.5138,28.28893 32.8808,21.13313 z m 202.75283,27.83274 c -7.6965,-2.07334 -11.21682,-3.75566 -16.98428,-8.11659 -9.78489,-7.39862 -16.25623,-18.09615 -18.26711,-30.19668 -0.68382,-4.11488 -0.99811,-17.90575 -0.82392,-36.1526 l 0.28161,-29.5 14.68384,-0.27635 14.68384,-0.27636 0.31616,30.27636 c 0.29987,28.71632 0.42661,30.48246 2.45975,34.27635 1.17898,2.2 2.98707,4.76276 4.01798,5.69501 2.66903,2.41361 10.39055,5.75813 13.33843,5.77745 8.76096,0.0574 17.9194,-6.90353 20.17407,-15.33346 0.88062,-3.29257 1.87144,-4.86131 3.2928,-5.21341 1.11822,-0.277 7.65813,-0.37358 14.53313,-0.21462 l 12.5,0.28903 0.30002,4.63308 c 0.38165,5.89375 -2.81891,15.67706 -7.42294,22.69007 -6.91299,10.53008 -17.01902,17.97169 -29.30858,21.58147 -6.67823,1.96158 -20.60652,1.99229 -27.7748,0.0613 z m -144.62703,-2.13254 c -0.36667,-0.36666 -0.66667,-23.55369 -0.66667,-51.52673 l 0,-50.86007 14.75,0.27674 14.75,0.27673 0.25935,50.4352 c 0.20408,39.68531 -0.009,50.60561 -1,51.23469 -1.51689,0.96298 -27.14405,1.11208 -28.09268,0.16344 z M 222.35755,385.8249 c -1.08883,-2.83744 1.48997,-13.64024 4.95288,-20.74806 9.54015,-19.58166 30.81165,-30.97 52.30441,-28.00273 22.74159,3.13967 42.11842,23.01436 43.23859,44.34952 l 0.27056,5.15321 -14.959,0 -14.95901,0 -0.64624,-3.15976 c -2.5907,-12.66711 -16.92466,-19.91267 -28.40188,-14.35664 -5.36597,2.59763 -9.2213,7.24153 -10.99022,13.23819 l -1.262,4.27821 -14.52384,0.27606 c -11.21825,0.21324 -14.63772,-0.0207 -15.02425,-1.028 z m 117.26644,-2.51123 c 0,-5.64759 2.68427,-14.94253 5.97258,-20.68153 9.55025,-16.66778 25.35248,-25.81116 44.52742,-25.76417 11.66448,0.0286 19.91802,2.60551 29.07218,9.07691 10.8759,7.68857 18.24108,19.09793 20.63369,31.96352 1.74535,9.38513 2.08936,9.16844 -14.55577,9.16844 l -14.41267,0 -1.12662,-4.4742 c -0.61964,-2.46082 -2.5817,-6.13146 -4.36014,-8.15699 -10.70946,-12.1974 -28.7438,-8.44102 -34.68641,7.22483 l -1.86115,4.90636 -14.60156,0.27673 -14.60155,0.27674 z m 109.3148,2.14115 c -1.01315,-2.64023 1.38982,-13.15533 4.51271,-19.74702 13.76632,-29.05753 50.19021,-38.17911 76.14845,-19.06974 11.08081,8.15722 18.68276,21.31257 19.77225,34.21631 l 0.53003,6.27753 -14.74067,-0.27753 -14.74068,-0.27753 -1.86115,-4.90636 c -7.30716,-19.26307 -32.93346,-19.16881 -38.5472,0.14179 l -1.53046,5.26457 -14.46042,0 c -12.41471,0 -14.54848,-0.22947 -15.08286,-1.62202 z"
         id="path3024"
         inkscape:connector-curvature="0"
         sodipodi:nodetypes="sssssscsssssssscssscccssssssscssscccscccsccsssscccssscsssssssscssscccssssscccsscss"
         inkscape:export-filename="/home/cyriaque/path3931.png"
         inkscape:export-xdpi="60.097404"
         inkscape:export-ydpi="60.097404" />
      <path
         style="fill:#bdcdd4"
         d="m 506.09375,16.28125 c -0.93162,0.0287 -1.85911,0.10655 -2.78125,0.21875 -0.65963,0.0809 -1.31174,0.18813 -1.96875,0.3125 -0.0626,0.0118 -0.12499,0.01925 -0.1875,0.03125 -0.54291,0.10625 -1.0853,0.20744 -1.625,0.34375 -1.60704,0.40245 -3.1936,0.93761 -4.71875,1.59375 -0.0124,0.005 -0.019,0.02605 -0.0312,0.03125 -2.07968,0.89804 -4.05268,2.02319 -5.90625,3.375 -0.0922,0.0664 -0.18951,0.11996 -0.28125,0.1875 -0.30701,0.2291 -0.60702,0.4774 -0.90625,0.71875 -1.74792,1.39802 -3.35083,3.00014 -4.75,4.75 -0.0234,0.0294 -0.0392,0.06435 -0.0625,0.09375 -0.30277,0.38148 -0.59079,0.76173 -0.875,1.15625 -0.0575,0.0803 -0.0994,0.16898 -0.15625,0.25 -0.69103,0.97874 -1.33647,1.98797 -1.90625,3.03125 -0.004,0.008 0.004,0.02315 0,0.03125 -0.12548,0.23025 -0.25575,0.45467 -0.375,0.6875 -0.15329,0.29902 -0.29238,0.59993 -0.4375,0.90625 -0.76266,1.61807 -1.37138,3.27844 -1.8125,4.96875 -0.82634,2.89837 -1.28663,5.70948 -1,6.875 l -0.0937,1.21875 4.625,-0.09375 c 1.21235,0.0289 2.75274,0.0625 4.71875,0.0625 l 8.8125,0 0.9375,-3.21875 c 0.035,-0.12031 0.0875,-0.22589 0.125,-0.34375 2.21422,-5.54185 6.93416,-8.37171 11.625,-8.5 4.75401,0.1423 9.55566,3.04768 11.71875,8.75 0.01,0.0321 0.0219,0.06165 0.0312,0.09375 l 0.90625,3.21875 8.8125,0 c 1.89042,0 3.40346,-0.0361 4.59375,-0.0625 l 4.75,0.09375 -0.0937,-1.25 c 0.26543,-1.1582 -0.15212,-3.84974 -0.9375,-6.65625 -0.89193,-3.51933 -2.51697,-6.96592 -4.71875,-10.03125 -0.31126,-0.43536 -0.63872,-0.86659 -0.96875,-1.28125 -0.68793,-0.86036 -1.4422,-1.68599 -2.21875,-2.46875 -0.33373,-0.33676 -0.65311,-0.68098 -1,-1 -0.49086,-0.45034 -1.01177,-0.86576 -1.53125,-1.28125 -2.18029,-1.75855 -4.56597,-3.18971 -7.09375,-4.28125 -0.0126,-0.005 -0.0186,-0.02585 -0.0312,-0.03125 -1.73545,-0.74661 -3.53649,-1.33261 -5.375,-1.75 -0.85507,-0.19521 -1.73274,-0.34807 -2.59375,-0.46875 -0.61983,-0.0863 -1.24993,-0.13894 -1.875,-0.1875 -0.47476,-0.0369 -0.96303,-0.07905 -1.4375,-0.09375 -0.0838,-0.003 -0.1662,0.002 -0.25,0 -0.55655,-0.013 -1.10141,-0.0171 -1.65625,0 z m 137.875,0 C 632.87204,16.62286 622.2406,22.93831 617,34 c -1.90213,4.01494 -3.3671,10.42311 -2.75,12.03125 0.32549,0.84819 1.6258,1 9.1875,1 l 8.8125,0 0.9375,-3.21875 c 3.41928,-11.76193 19.01802,-11.82688 23.46875,-0.09375 l 1.15625,3 8.96875,0.15625 8.96875,0.1875 -0.3125,-3.84375 C 674.7739,35.35919 670.15548,27.3435 663.40625,22.375 c -5.92911,-4.36476 -12.77947,-6.29872 -19.4375,-6.09375 z m 69.84375,0 c -1.22395,0.02052 -2.46021,0.111793 -3.6875,0.28125 -13.85172,1.912366 -25.6302,14.036215 -26.3125,27.03125 l -0.1875,3.125 9.125,0 9.09375,0 0.40625,-1.90625 c 1.57797,-7.715427 10.32177,-12.134114 17.3125,-8.75 3.26833,1.582238 5.61008,4.41002 6.6875,8.0625 l 0.75,2.59375 8.84375,0.15625 c 6.83297,0.129858 8.92078,-0.01163 9.15625,-0.625 0.66318,-1.728237 -0.89078,-8.295636 -3,-12.625 -5.08452,-10.436119 -15.6394,-17.063769 -26.96875,-17.34375 -0.40462,-0.01 -0.81077,-0.0068 -1.21875,0 z M 558.03125,16.375 c -5.50002,4.18535 -9.55527,9.79713 -11.375,16.1875 l 0,2.125 20.03125,0 0,12.21875 0.125,0 18.1875,0 0.125,0 0,-12.21875 20.0625,0 0,-2.125 c -1.81973,-6.39037 -5.87498,-12.00215 -11.375,-16.1875 l -8.6875,0 -18.4375,0 -8.65625,0 z M 440.5625,16.4375 c -0.84981,-0.002 -1.70386,0.03695 -2.53125,0.09375 -0.0101,6.3e-4 -0.0213,-6.4e-4 -0.0312,0 -0.58327,0.0406 -1.14722,0.0867 -1.71875,0.15625 -2.07751,0.2348 -3.99989,0.64653 -5.84375,1.28125 -7.11209,2.29373 -12.9659,7.11565 -17,14.15625 -2.00289,3.49558 -3.65625,9.15385 -3.65625,12.59375 l 0,2.34375 4.65625,-0.09375 c 1.25922,0.0341 2.74566,0.0625 4.71875,0.0625 l 8.78125,0 0.6875,-2.75 c 0.27701,-1.10012 0.99079,-2.57474 1.78125,-3.78125 0.25161,-0.36672 0.50415,-0.73044 0.78125,-1.0625 0.0308,-0.0365 0.0632,-0.0901 0.0937,-0.125 0.01,-0.0113 0.0213,-0.02015 0.0312,-0.03125 0.18889,-0.2197 0.39447,-0.42122 0.59375,-0.625 0.23965,-0.24085 0.46943,-0.47056 0.71875,-0.6875 0.044,-0.0387 0.0805,-0.087 0.125,-0.125 0.58141,-0.4928 1.18941,-0.91465 1.8125,-1.28125 0.0118,-0.007 0.0195,-0.02455 0.0312,-0.03125 0.44744,-0.26117 0.91196,-0.49004 1.375,-0.6875 0.0295,-0.0125 0.0643,-0.01905 0.0937,-0.03125 0.21669,-0.0903 0.43699,-0.17343 0.65625,-0.25 0.032,-0.0112 0.0616,-0.02045 0.0937,-0.03125 0.0729,-0.0248 0.14558,-0.0392 0.21875,-0.0625 0.17984,-0.0571 0.34942,-0.1079 0.53125,-0.15625 0.45307,-0.12076 0.91689,-0.21657 1.375,-0.28125 0.0512,-0.007 0.10502,-0.02475 0.15625,-0.03125 0.10257,-0.013 0.20983,-0.02115 0.3125,-0.03125 0.61053,-0.0612 1.22854,-0.06795 1.84375,-0.03125 0.051,0.003 0.10531,-0.004 0.15625,0 0.10699,0.008 0.20557,0.02045 0.3125,0.03125 0.61527,0.0624 1.21222,0.18413 1.8125,0.34375 0.14191,0.0378 0.29635,0.0816 0.4375,0.125 0.11223,0.0345 0.23235,0.05595 0.34375,0.09375 0.47971,0.16308 0.93985,0.36493 1.40625,0.59375 0.0412,0.0201 0.084,0.0419 0.125,0.0625 0.0209,0.0106 0.0416,0.02065 0.0625,0.03125 0.27352,0.13928 0.54752,0.27639 0.8125,0.4375 0.61651,0.3761 1.20712,0.81129 1.78125,1.3125 0.0222,0.0195 0.0404,0.0429 0.0625,0.0625 0.1984,0.17554 0.40154,0.37169 0.59375,0.5625 0.0211,0.0213 0.0415,0.041 0.0625,0.0625 0.15013,0.15088 0.2915,0.30842 0.4375,0.46875 0.11917,0.13454 0.26003,0.26558 0.375,0.40625 0.2155,0.26327 0.41174,0.55424 0.625,0.875 0.008,0.0118 0.0231,0.01955 0.0312,0.03125 0.80193,1.21399 1.53208,2.73011 1.8125,3.84375 l 0.6875,2.75 8.78125,0 c 1.9731,0 3.45953,-0.0284 4.71875,-0.0625 l 4.625,0.09375 0,-2.34375 c 0,-3.4399 -1.62212,-9.09817 -3.625,-12.59375 -3.75968,-6.56166 -9.12604,-11.16637 -15.59375,-13.625 -2.27273,-0.93557 -4.64815,-1.51667 -7.25,-1.8125 -0.56319,-0.0685 -1.14416,-0.11584 -1.71875,-0.15625 -0.0303,-0.002 -0.0634,0.002 -0.0937,0 -0.81564,-0.0551 -1.63134,-0.09585 -2.46875,-0.09375 z m -30.78125,36.03125 0,30.96875 c 0,17.03815 0.18292,31.18292 0.40625,31.40625 0.5778,0.57786 16.20108,0.46155 17.125,-0.125 0.60409,-0.38316 0.71806,-7.0155 0.59375,-31.1875 L 427.75,52.8125 l -8.96875,-0.1875 -9,-0.15625 z m 61.53125,0 -8.96875,0.15625 -9,0.1875 -0.15625,30.71875 c -0.1243,24.172 0.0209,30.80434 0.625,31.1875 0.92393,0.58655 16.51594,0.70286 17.09375,0.125 0.22333,-0.22333 0.40625,-14.3681 0.40625,-31.40625 l 0,-30.96875 z m 23.0625,0 -8.9375,0.15625 -8.9375,0.1875 -0.1875,17.96875 c -0.0755,7.90524 0.0192,14.2977 0.21875,18.3125 l 0,0.03125 c -0.0581,0.89746 0.0249,1.93229 0.21875,3.0625 0.0243,0.20191 0.0365,0.4371 0.0625,0.59375 1.22481,7.37033 5.1651,13.89981 11.125,18.40625 3.51291,2.6562 5.65588,3.67464 10.34375,4.9375 1.72342,0.46427 4.11209,0.71942 6.59375,0.8125 0.77245,0.0388 1.58122,0.0607 2.375,0.0625 0.66588,-0.006 1.3198,-0.0299 1.96875,-0.0625 2.49296,-0.0919 4.86316,-0.3463 6.59375,-0.8125 4.68787,-1.26286 6.83084,-2.2813 10.34375,-4.9375 5.9599,-4.50644 9.90019,-11.03592 11.125,-18.40625 0.0261,-0.15718 0.0694,-0.391 0.0937,-0.59375 0.14539,-0.84753 0.1809,-1.61819 0.1875,-2.34375 0.0111,-0.19499 0.0208,-0.50988 0.0312,-0.71875 l 0,-0.09375 c 0.19749,-4.0193 0.26262,-10.38066 0.1875,-18.25 L 537.625,52.8125 l -8.96875,-0.1875 -8.9375,-0.15625 -0.1875,18.4375 c -0.13292,12.72823 -0.20941,16.73055 -0.71875,18.875 -0.87828,2.85657 -3.04328,5.41541 -5.71875,7.0625 -1.46719,0.75474 -3.16112,1.43818 -4.4375,1.75 -0.52456,0.0966 -1.06735,0.13759 -1.59375,0.15625 -0.53236,-0.0179 -1.06323,-0.0586 -1.59375,-0.15625 -1.37611,-0.33186 -3.23604,-1.10921 -4.78125,-1.9375 -2.46693,-1.60643 -4.46106,-3.9969 -5.34375,-6.65625 -0.55271,-2.09732 -0.64426,-5.9756 -0.78125,-19.09375 l -0.1875,-18.4375 z m 72.71875,0 0,0.34375 -0.34375,0 -0.15625,30.71875 c -0.1243,24.172 0.0214,30.80433 0.625,31.1875 0.0468,0.0297 0.16309,0.0666 0.28125,0.0937 10e-4,0.002 -10e-4,0.0302 0,0.0312 0.007,0.007 0.0506,-0.007 0.0625,0 0.46117,0.27251 4.37106,0.40359 8.34375,0.375 0.0106,-8e-5 0.0208,8e-5 0.0312,0 3.97258,0.0286 7.85135,-0.1025 8.3125,-0.375 0.0119,-0.007 0.0553,0.007 0.0625,0 10e-4,-10e-4 -10e-4,-0.0293 0,-0.0312 0.11816,-0.0273 0.23446,-0.0641 0.28125,-0.0937 0.60361,-0.38317 0.7493,-7.0155 0.625,-31.1875 l -0.15625,-30.71875 -0.34375,0 0,-0.34375 -8.65625,0.15625 -0.3125,0 -8.65625,-0.15625 z m 65.15625,0 -3.5625,0.0625 -13.6875,0 0,0.28125 -0.625,0 -0.1875,17.96875 c -0.1061,11.11401 0.11474,19.49366 0.53125,22 1.22481,7.37033 5.1651,13.89981 11.125,18.40625 3.51291,2.65621 5.65587,3.67465 10.34375,4.9375 4.36614,1.17615 12.83859,1.16338 16.90625,-0.0312 7.48547,-2.19869 13.6331,-6.74246 17.84375,-13.15625 2.80428,-4.27157 4.76371,-10.22267 4.53125,-13.8125 l -0.1875,-2.8125 -7.625,-0.1875 c -4.18751,-0.0968 -8.16265,-0.0437 -8.84375,0.125 -0.86574,0.21446 -1.46362,1.18202 -2,3.1875 -1.3733,5.1346 -6.94502,9.37871 -12.28125,9.34375 -1.79553,-0.0118 -6.49932,-2.06114 -8.125,-3.53125 -0.62792,-0.56783 -1.75064,-2.12875 -2.46875,-3.46875 -1.19896,-2.23729 -1.26592,-3.62243 -1.4375,-19.5625 l 43.40625,0 0,-19.6875 -43.65625,0 0,-0.0625 z m 60.15625,0.1875 -8.78125,0.15625 c 0,0 -1.23235,9.099657 5.53125,14.96875 6.76366,5.869087 23.52001,2.862084 28,4.0625 l 0,0.40625 c 6.15883,1.295879 11.4375,6.631586 11.4375,14.0625 0,10.374357 -10.64009,17.23354 -20,12.875 -5.53719,-2.578468 -8.4936,-7.752202 -8.4375,-13.03125 l -16.53125,0 c 0.32556,7.147412 1.1803,10.401606 3.15625,14.46875 2.11739,4.35817 8.64371,10.88359 13,13 6.00674,2.91834 14.27087,4.04396 20.40625,2.8125 16.04945,-3.22149 26.99907,-18.37743 24.75,-34.28125 -1.60453,-11.34598 -9.13683,-20.720492 -19.875,-24.75 -4.97019,-1.8651 -10.74595,-1.70882 -16.34375,-1.8125 -5.03226,0 -6.78125,-2.625 -6.78125,-2.625 0,0 -6.69891,-0.376449 -9.53125,-0.3125 z"
         transform="matrix(1.6417886,0,0,1.6417886,-103.68625,309.86851)"
         id="path3931"
         inkscape:connector-curvature="0"
         inkscape:export-xdpi="60.097404"
         inkscape:export-ydpi="60.097404" />
    </g>
    <g
       style="fill:#9ade00"
       transform="matrix(0.60909183,0,0,0.60909183,270.07149,363.9103)"
       id="g3858" />
  </g>
</svg>
